<svg xmlns="http://www.w3.org/2000/svg" xmlns:xlink="http://www.w3.org/1999/xlink" version="1.1" x="0px" y="0px" viewBox="0 0 32 40" style="enable-background:new 0 0 32 32;" xml:space="preserve"><path d="M16,4C9.3725586,4,4,9.3725586,4,16c0,6.6273804,5.3725586,12,12,12s12-5.3726196,12-12C28,9.3725586,22.6274414,4,16,4z   M20.296875,16.296875c-0.1953125,0.1953125-0.4511719,0.2929688-0.7070313,0.2929688s-0.5117188-0.0976563-0.7070313-0.2929688  L17,14.4140625V20c0,0.5522461-0.4477539,1-1,1s-1-0.4477539-1-1v-5.5859375l-1.8828125,1.8828125  c-0.390625,0.390625-1.0234375,0.390625-1.4140625,0c-0.3906288-0.390625-0.3906288-1.0234375,0-1.4140625l3.5895386-3.5895386  c0.0921631-0.0922852,0.2028198-0.1653442,0.3251953-0.2160645c0.2445068-0.1011353,0.5197754-0.1011353,0.7642822,0  c0.1223755,0.0507202,0.2330322,0.1237793,0.3251953,0.2160645l3.5895386,3.5895386  C20.6874962,15.2734375,20.6874962,15.90625,20.296875,16.296875z" fill="#f48336"/><text x="0" y="47" fill="#f48336" font-size="5px" font-weight="bold" font-family="'Helvetica Neue', Helvetica, Arial-Unicode, Arial, Sans-serif">Created by Royyan Wijaya</text><text x="0" y="52" fill="#f48336" font-size="5px" font-weight="bold" font-family="'Helvetica Neue', Helvetica, Arial-Unicode, Arial, Sans-serif">from the Noun Project</text></svg>